<?xml version="1.0" standalone="no"?>
<!DOCTYPE svg PUBLIC "-//W3C//DTD SVG 20010904//EN"
 "http://www.w3.org/TR/2001/REC-SVG-20010904/DTD/svg10.dtd">
<svg version="1.0" xmlns="http://www.w3.org/2000/svg"
 width="384.000000pt" height="384.000000pt" viewBox="0 0 384.000000 384.000000"
 preserveAspectRatio="xMidYMid meet">
<metadata>
Created by potrace 1.16, written by Peter Selinger 2001-2019
</metadata>
<g transform="translate(0.000000,384.000000) scale(0.100000,-0.100000)"
fill="#000000" stroke="none">
<path d="M2584 2613 c-48 -65 -106 -145 -130 -177 l-44 -60 0 -128 0 -128 206
0 c122 0 213 -4 225 -10 69 -37 64 -211 -8 -248 -20 -11 -203 -17 -430 -14
l-153 2 0 250 0 250 -119 0 -120 0 -3 -231 -3 -231 -37 -34 c-21 -19 -44 -34
-52 -34 -19 0 -31 125 -22 226 l7 74 -121 0 -120 0 0 -124 0 -125 -33 -25
c-36 -27 -83 -36 -74 -13 2 7 10 39 17 72 34 163 -42 334 -184 416 -47 27 -58
29 -156 29 l-105 0 -68 -109 c-37 -60 -67 -112 -67 -115 0 -3 65 -6 144 -6
l144 0 36 -40 c63 -69 61 -135 -4 -194 l-40 -36 -200 0 -200 0 -70 -105 c-38
-57 -70 -107 -70 -110 0 -3 127 -5 283 -5 311 0 343 4 430 59 26 17 55 44 66
61 l18 31 68 -75 67 -76 52 28 c28 15 72 48 98 73 l48 45 51 -68 c78 -105 115
-103 235 19 l73 74 62 -86 63 -85 268 0 c204 0 277 3 301 14 43 18 120 104
151 171 14 29 31 85 38 125 11 62 10 80 -5 138 -24 91 -73 162 -155 222 l-67
50 -102 0 c-57 0 -103 2 -103 5 0 3 51 70 113 148 62 78 127 161 145 185 l34
42 -146 0 -146 0 -86 -117z"/>
<path d="M796 1378 c-12 -16 -16 -47 -16 -108 0 -137 -15 -130 270 -130 285 0
270 -7 270 130 0 137 15 130 -270 130 -236 0 -239 0 -254 -22z m494 2 c11 -7
16 -33 18 -103 5 -135 21 -127 -258 -127 -194 0 -231 2 -244 16 -12 12 -16 37
-16 104 0 67 4 92 16 104 13 14 49 16 242 16 125 0 234 -5 242 -10z"/>
<path d="M1396 1378 c-12 -16 -16 -47 -16 -108 0 -137 -13 -130 255 -130 268
0 255 -7 255 130 0 137 13 130 -255 130 -220 0 -224 0 -239 -22z"/>
<path d="M1966 1378 c-12 -16 -16 -47 -16 -108 0 -137 -13 -130 255 -130 268
0 255 -7 255 130 0 137 13 130 -255 130 -220 0 -224 0 -239 -22z m464 2 c11
-7 16 -33 18 -103 5 -134 19 -127 -243 -127 -181 0 -216 2 -229 16 -12 12 -16
37 -16 104 0 67 4 92 16 104 13 14 48 16 227 16 117 0 219 -5 227 -10z"/>
<path d="M2536 1378 c-12 -16 -16 -47 -16 -108 0 -137 -13 -130 255 -130 268
0 255 -7 255 130 0 137 13 130 -255 130 -220 0 -224 0 -239 -22z m464 2 c11
-7 16 -33 18 -103 5 -134 19 -127 -243 -127 -181 0 -216 2 -229 16 -23 22 -23
186 0 208 13 14 48 16 227 16 117 0 219 -5 227 -10z"/>
</g>
</svg>
